<mxfile host="app.diagrams.net" modified="2020-09-01T08:51:22.260Z" agent="5.0 (Macintosh; Intel Mac OS X 10_15_6) AppleWebKit/537.36 (KHTML, like Gecko) Chrome/84.0.4147.135 Safari/537.36" etag="goj2A5xbUCg-KrDh-KOg" version="13.6.6" type="github">
  <diagram id="yP1MtyXhHekd8L7kZ_Y-" name="Page-1">
    <mxGraphModel dx="1186" dy="661" grid="0" gridSize="10" guides="1" tooltips="1" connect="1" arrows="1" fold="1" page="1" pageScale="1" pageWidth="827" pageHeight="1169" math="0" shadow="0">
      <root>
        <mxCell id="0" />
        <mxCell id="1" parent="0" />
        <mxCell id="SAk0w7PRKyOR6Q5ZeCQe-9" value="" style="rounded=0;whiteSpace=wrap;html=1;dashed=1;fillColor=#f5f5f5;strokeColor=#666666;fontColor=#333333;" parent="1" vertex="1">
          <mxGeometry x="402" y="471" width="69" height="81" as="geometry" />
        </mxCell>
        <mxCell id="wOw6Tid5QmzaZG2gmArs-5" value="" style="rounded=0;whiteSpace=wrap;html=1;dashed=1;dashPattern=1 1;fillColor=#f5f5f5;strokeColor=#666666;fontColor=#333333;" parent="1" vertex="1">
          <mxGeometry x="240" y="471" width="148" height="80" as="geometry" />
        </mxCell>
        <mxCell id="wOw6Tid5QmzaZG2gmArs-6" value="智能营销" style="rounded=1;whiteSpace=wrap;html=1;dashed=1;dashPattern=1 1;" parent="1" vertex="1">
          <mxGeometry x="246" y="476" width="62" height="28" as="geometry" />
        </mxCell>
        <mxCell id="wOw6Tid5QmzaZG2gmArs-7" value="交易" style="rounded=1;whiteSpace=wrap;html=1;dashed=1;dashPattern=1 1;" parent="1" vertex="1">
          <mxGeometry x="317" y="476" width="60" height="27" as="geometry" />
        </mxCell>
        <mxCell id="wOw6Tid5QmzaZG2gmArs-8" value="推荐" style="rounded=1;whiteSpace=wrap;html=1;dashed=1;dashPattern=1 1;" parent="1" vertex="1">
          <mxGeometry x="412" y="483" width="55" height="21" as="geometry" />
        </mxCell>
        <mxCell id="wOw6Tid5QmzaZG2gmArs-9" value="......." style="rounded=1;whiteSpace=wrap;html=1;dashed=1;dashPattern=1 1;" parent="1" vertex="1">
          <mxGeometry x="315" y="517" width="62" height="25" as="geometry" />
        </mxCell>
        <mxCell id="wOw6Tid5QmzaZG2gmArs-24" value="投放平台" style="rounded=0;whiteSpace=wrap;html=1;align=left;horizontal=1;verticalAlign=top;fillColor=#d5e8d4;strokeColor=#82b366;" parent="1" vertex="1">
          <mxGeometry x="260" y="265" width="370" height="185" as="geometry" />
        </mxCell>
        <mxCell id="SAk0w7PRKyOR6Q5ZeCQe-10" value="BI" style="rounded=1;whiteSpace=wrap;html=1;dashed=1;" parent="1" vertex="1">
          <mxGeometry x="246" y="517" width="61" height="24" as="geometry" />
        </mxCell>
        <mxCell id="SAk0w7PRKyOR6Q5ZeCQe-11" value="业务前台系统" style="rounded=0;whiteSpace=wrap;html=1;dashed=1;fillColor=#ffe6cc;strokeColor=#d79b00;verticalAlign=top;align=left;" parent="1" vertex="1">
          <mxGeometry x="52" y="170" width="387" height="62" as="geometry" />
        </mxCell>
        <mxCell id="SAk0w7PRKyOR6Q5ZeCQe-18" value="人群管理" style="rounded=0;whiteSpace=wrap;html=1;fillColor=#f8cecc;strokeColor=#b85450;" parent="1" vertex="1">
          <mxGeometry x="269" y="406" width="71" height="28" as="geometry" />
        </mxCell>
        <mxCell id="SAk0w7PRKyOR6Q5ZeCQe-22" value="投放计划" style="rounded=0;whiteSpace=wrap;html=1;fillColor=#f5f5f5;strokeColor=#666666;verticalAlign=top;align=left;fontColor=#333333;" parent="1" vertex="1">
          <mxGeometry x="266" y="290" width="84" height="90" as="geometry" />
        </mxCell>
        <mxCell id="SAk0w7PRKyOR6Q5ZeCQe-23" value="&lt;div&gt;&lt;span&gt;&lt;sup&gt;投放能力&lt;/sup&gt;&lt;/span&gt;&lt;/div&gt;" style="rounded=0;whiteSpace=wrap;html=1;dashed=1;align=left;horizontal=1;verticalAlign=top;fillColor=#f5f5f5;strokeColor=#666666;fontColor=#333333;" parent="1" vertex="1">
          <mxGeometry x="365" y="277" width="95" height="163" as="geometry" />
        </mxCell>
        <mxCell id="SAk0w7PRKyOR6Q5ZeCQe-24" value="通投" style="rounded=0;whiteSpace=wrap;html=1;" parent="1" vertex="1">
          <mxGeometry x="375" y="302" width="70" height="25" as="geometry" />
        </mxCell>
        <mxCell id="SAk0w7PRKyOR6Q5ZeCQe-25" value="定投" style="rounded=0;whiteSpace=wrap;html=1;" parent="1" vertex="1">
          <mxGeometry x="375" y="330.5" width="70" height="25" as="geometry" />
        </mxCell>
        <mxCell id="SAk0w7PRKyOR6Q5ZeCQe-26" value="ABTest" style="rounded=0;whiteSpace=wrap;html=1;" parent="1" vertex="1">
          <mxGeometry x="375" y="359" width="70" height="25" as="geometry" />
        </mxCell>
        <mxCell id="SAk0w7PRKyOR6Q5ZeCQe-27" value="赛马" style="rounded=0;whiteSpace=wrap;html=1;" parent="1" vertex="1">
          <mxGeometry x="375" y="386.5" width="70" height="24" as="geometry" />
        </mxCell>
        <mxCell id="SAk0w7PRKyOR6Q5ZeCQe-28" value="素材管理" style="rounded=0;whiteSpace=wrap;html=1;fillColor=#f5f5f5;strokeColor=#666666;fontColor=#333333;align=left;horizontal=1;verticalAlign=top;" parent="1" vertex="1">
          <mxGeometry x="470" y="278.5" width="147" height="160" as="geometry" />
        </mxCell>
        <mxCell id="SAk0w7PRKyOR6Q5ZeCQe-29" value="素材生产" style="rounded=0;whiteSpace=wrap;html=1;" parent="1" vertex="1">
          <mxGeometry x="479" y="302.5" width="55" height="23" as="geometry" />
        </mxCell>
        <mxCell id="SAk0w7PRKyOR6Q5ZeCQe-31" value="素材聚合" style="rounded=0;whiteSpace=wrap;html=1;" parent="1" vertex="1">
          <mxGeometry x="479" y="333.5" width="55" height="23" as="geometry" />
        </mxCell>
        <mxCell id="SAk0w7PRKyOR6Q5ZeCQe-32" value="排期管理" style="rounded=0;whiteSpace=wrap;html=1;" parent="1" vertex="1">
          <mxGeometry x="479" y="360.5" width="55" height="29" as="geometry" />
        </mxCell>
        <mxCell id="SAk0w7PRKyOR6Q5ZeCQe-33" value="资源位投放" style="rounded=0;whiteSpace=wrap;html=1;dashed=1;" parent="1" vertex="1">
          <mxGeometry x="276" y="192" width="80" height="25" as="geometry" />
        </mxCell>
        <mxCell id="SAk0w7PRKyOR6Q5ZeCQe-36" value="投放平台运营后台" style="rounded=0;whiteSpace=wrap;html=1;dashed=1;fillColor=#e1d5e7;strokeColor=#9673a6;" parent="1" vertex="1">
          <mxGeometry x="505" y="187" width="103" height="35" as="geometry" />
        </mxCell>
        <mxCell id="SAk0w7PRKyOR6Q5ZeCQe-37" value="运营" style="shape=umlActor;verticalLabelPosition=bottom;verticalAlign=top;html=1;outlineConnect=0;dashed=1;" parent="1" vertex="1">
          <mxGeometry x="547" y="107" width="17.5" height="30" as="geometry" />
        </mxCell>
        <mxCell id="SAk0w7PRKyOR6Q5ZeCQe-39" value="用户" style="shape=umlActor;verticalLabelPosition=bottom;verticalAlign=top;html=1;outlineConnect=0;dashed=1;" parent="1" vertex="1">
          <mxGeometry x="236" y="102" width="17.5" height="30" as="geometry" />
        </mxCell>
        <mxCell id="SAk0w7PRKyOR6Q5ZeCQe-41" value="" style="endArrow=classic;html=1;entryX=0.5;entryY=0;entryDx=0;entryDy=0;" parent="1" target="SAk0w7PRKyOR6Q5ZeCQe-11" edge="1">
          <mxGeometry width="50" height="50" relative="1" as="geometry">
            <mxPoint x="245" y="152" as="sourcePoint" />
            <mxPoint x="480" y="242" as="targetPoint" />
          </mxGeometry>
        </mxCell>
        <mxCell id="SAk0w7PRKyOR6Q5ZeCQe-42" value="" style="endArrow=classic;html=1;" parent="1" edge="1">
          <mxGeometry width="50" height="50" relative="1" as="geometry">
            <mxPoint x="558" y="154" as="sourcePoint" />
            <mxPoint x="558" y="187" as="targetPoint" />
          </mxGeometry>
        </mxCell>
        <mxCell id="SAk0w7PRKyOR6Q5ZeCQe-43" value="" style="endArrow=classic;html=1;exitX=0.705;exitY=1.013;exitDx=0;exitDy=0;entryX=0.191;entryY=0;entryDx=0;entryDy=0;exitPerimeter=0;entryPerimeter=0;" parent="1" source="SAk0w7PRKyOR6Q5ZeCQe-11" target="wOw6Tid5QmzaZG2gmArs-24" edge="1">
          <mxGeometry width="50" height="50" relative="1" as="geometry">
            <mxPoint x="430" y="310" as="sourcePoint" />
            <mxPoint x="300" y="260" as="targetPoint" />
          </mxGeometry>
        </mxCell>
        <mxCell id="SAk0w7PRKyOR6Q5ZeCQe-62" value="dubbo" style="edgeLabel;html=1;align=center;verticalAlign=middle;resizable=0;points=[];" parent="SAk0w7PRKyOR6Q5ZeCQe-43" vertex="1" connectable="0">
          <mxGeometry x="-0.2279" y="-3" relative="1" as="geometry">
            <mxPoint as="offset" />
          </mxGeometry>
        </mxCell>
        <mxCell id="SAk0w7PRKyOR6Q5ZeCQe-44" value="" style="endArrow=classic;html=1;exitX=0.5;exitY=1;exitDx=0;exitDy=0;" parent="1" source="SAk0w7PRKyOR6Q5ZeCQe-36" edge="1">
          <mxGeometry width="50" height="50" relative="1" as="geometry">
            <mxPoint x="260" y="255" as="sourcePoint" />
            <mxPoint x="557" y="266" as="targetPoint" />
          </mxGeometry>
        </mxCell>
        <mxCell id="SAk0w7PRKyOR6Q5ZeCQe-46" value="业务后台系统" style="rounded=0;whiteSpace=wrap;html=1;dashed=1;fillColor=#dae8fc;align=left;strokeColor=#6c8ebf;verticalAlign=top;" parent="1" vertex="1">
          <mxGeometry x="60" y="265" width="111" height="260" as="geometry" />
        </mxCell>
        <mxCell id="SAk0w7PRKyOR6Q5ZeCQe-47" value="云主题后台" style="rounded=0;whiteSpace=wrap;html=1;dashed=1;align=center;" parent="1" vertex="1">
          <mxGeometry x="78" y="300" width="70" height="35.5" as="geometry" />
        </mxCell>
        <mxCell id="SAk0w7PRKyOR6Q5ZeCQe-48" value="首页后台" style="rounded=0;whiteSpace=wrap;html=1;dashed=1;align=center;" parent="1" vertex="1">
          <mxGeometry x="79" y="346" width="70" height="45" as="geometry" />
        </mxCell>
        <mxCell id="SAk0w7PRKyOR6Q5ZeCQe-49" value="创建投放计划" style="endArrow=classic;html=1;entryX=0.003;entryY=0.47;entryDx=0;entryDy=0;entryPerimeter=0;" parent="1" target="wOw6Tid5QmzaZG2gmArs-24" edge="1">
          <mxGeometry width="50" height="50" relative="1" as="geometry">
            <mxPoint x="172" y="355" as="sourcePoint" />
            <mxPoint x="480" y="250" as="targetPoint" />
          </mxGeometry>
        </mxCell>
        <mxCell id="SAk0w7PRKyOR6Q5ZeCQe-50" value="......" style="rounded=0;whiteSpace=wrap;html=1;dashed=1;align=center;" parent="1" vertex="1">
          <mxGeometry x="79" y="469" width="69" height="35" as="geometry" />
        </mxCell>
        <mxCell id="SAk0w7PRKyOR6Q5ZeCQe-51" value="" style="endArrow=classic;html=1;entryX=0.5;entryY=0;entryDx=0;entryDy=0;" parent="1" target="wOw6Tid5QmzaZG2gmArs-5" edge="1">
          <mxGeometry width="50" height="50" relative="1" as="geometry">
            <mxPoint x="314" y="450" as="sourcePoint" />
            <mxPoint x="480" y="280" as="targetPoint" />
          </mxGeometry>
        </mxCell>
        <mxCell id="SAk0w7PRKyOR6Q5ZeCQe-55" value="流量调控" style="rounded=1;whiteSpace=wrap;html=1;dashed=1;align=center;" parent="1" vertex="1">
          <mxGeometry x="412.5" y="514" width="53.5" height="27" as="geometry" />
        </mxCell>
        <mxCell id="SAk0w7PRKyOR6Q5ZeCQe-57" value="首页" style="rounded=0;whiteSpace=wrap;html=1;dashed=1;" parent="1" vertex="1">
          <mxGeometry x="58" y="196.5" width="61" height="28" as="geometry" />
        </mxCell>
        <mxCell id="SAk0w7PRKyOR6Q5ZeCQe-60" value="......" style="rounded=0;whiteSpace=wrap;html=1;dashed=1;" parent="1" vertex="1">
          <mxGeometry x="374" y="192.5" width="53" height="25" as="geometry" />
        </mxCell>
        <mxCell id="SAk0w7PRKyOR6Q5ZeCQe-64" value="资源位投放后台" style="rounded=0;whiteSpace=wrap;html=1;dashed=1;align=center;" parent="1" vertex="1">
          <mxGeometry x="79" y="401" width="69" height="58" as="geometry" />
        </mxCell>
        <mxCell id="CF3iyAbwDcJgYB5cswlC-1" value="个性化" style="rounded=0;whiteSpace=wrap;html=1;fillColor=#f8cecc;strokeColor=#b85450;" parent="1" vertex="1">
          <mxGeometry x="375" y="414" width="70" height="24" as="geometry" />
        </mxCell>
        <mxCell id="CF3iyAbwDcJgYB5cswlC-2" value="变更审核" style="rounded=0;whiteSpace=wrap;html=1;" parent="1" vertex="1">
          <mxGeometry x="479" y="396.5" width="55" height="27" as="geometry" />
        </mxCell>
        <mxCell id="CF3iyAbwDcJgYB5cswlC-4" value="排期管理" style="rounded=0;whiteSpace=wrap;html=1;" parent="1" vertex="1">
          <mxGeometry x="273.5" y="315" width="70" height="25" as="geometry" />
        </mxCell>
        <mxCell id="CF3iyAbwDcJgYB5cswlC-5" value="投放方案" style="rounded=0;whiteSpace=wrap;html=1;fillColor=#f8cecc;strokeColor=#b85450;" parent="1" vertex="1">
          <mxGeometry x="273" y="346" width="70" height="25" as="geometry" />
        </mxCell>
        <mxCell id="CF3iyAbwDcJgYB5cswlC-7" value="素材池" style="rounded=0;whiteSpace=wrap;html=1;align=left;verticalAlign=top;fillColor=#bac8d3;strokeColor=#23445d;" parent="1" vertex="1">
          <mxGeometry x="542.5" y="302.5" width="64.5" height="106" as="geometry" />
        </mxCell>
        <mxCell id="CF3iyAbwDcJgYB5cswlC-9" value="聚星" style="rounded=0;whiteSpace=wrap;html=1;align=left;verticalAlign=top;" parent="1" vertex="1">
          <mxGeometry x="133" y="184.5" width="127" height="44.5" as="geometry" />
        </mxCell>
        <mxCell id="SAk0w7PRKyOR6Q5ZeCQe-12" value="云主题" style="rounded=0;whiteSpace=wrap;html=1;dashed=1;fillColor=#f8cecc;strokeColor=#b85450;" parent="1" vertex="1">
          <mxGeometry x="163" y="196.5" width="40" height="28" as="geometry" />
        </mxCell>
        <mxCell id="SAk0w7PRKyOR6Q5ZeCQe-34" value="单商品" style="rounded=0;whiteSpace=wrap;html=1;dashed=1;fillColor=#f8cecc;strokeColor=#b85450;" parent="1" vertex="1">
          <mxGeometry x="207" y="196.5" width="47" height="28" as="geometry" />
        </mxCell>
        <mxCell id="CF3iyAbwDcJgYB5cswlC-10" value="云主题" style="rounded=0;whiteSpace=wrap;html=1;dashed=1;align=center;" parent="1" vertex="1">
          <mxGeometry x="552.5" y="325.5" width="50" height="20" as="geometry" />
        </mxCell>
        <mxCell id="CF3iyAbwDcJgYB5cswlC-11" value="单商品" style="rounded=0;whiteSpace=wrap;html=1;dashed=1;align=center;" parent="1" vertex="1">
          <mxGeometry x="552.5" y="349.25" width="50" height="24" as="geometry" />
        </mxCell>
        <mxCell id="CF3iyAbwDcJgYB5cswlC-12" value="资源位" style="rounded=0;whiteSpace=wrap;html=1;dashed=1;align=center;" parent="1" vertex="1">
          <mxGeometry x="552.5" y="380.25" width="50" height="19.25" as="geometry" />
        </mxCell>
        <mxCell id="CF3iyAbwDcJgYB5cswlC-16" value="" style="endArrow=classic;html=1;exitX=0.457;exitY=0.995;exitDx=0;exitDy=0;entryX=0.391;entryY=0;entryDx=0;entryDy=0;entryPerimeter=0;exitPerimeter=0;" parent="1" source="wOw6Tid5QmzaZG2gmArs-24" target="SAk0w7PRKyOR6Q5ZeCQe-9" edge="1">
          <mxGeometry width="50" height="50" relative="1" as="geometry">
            <mxPoint x="463" y="446" as="sourcePoint" />
            <mxPoint x="463" y="471" as="targetPoint" />
          </mxGeometry>
        </mxCell>
        <mxCell id="-CnpAzFmehN0sEzD7tOe-1" value="" style="rounded=0;whiteSpace=wrap;html=1;dashed=1;fillColor=#f5f5f5;strokeColor=#666666;fontColor=#333333;" vertex="1" parent="1">
          <mxGeometry x="486" y="471" width="154" height="82" as="geometry" />
        </mxCell>
        <mxCell id="-CnpAzFmehN0sEzD7tOe-3" value="drds" style="rounded=0;whiteSpace=wrap;html=1;dashed=1;dashPattern=1 1;" vertex="1" parent="1">
          <mxGeometry x="493" y="476" width="38" height="28" as="geometry" />
        </mxCell>
        <mxCell id="-CnpAzFmehN0sEzD7tOe-4" value="tail" style="rounded=0;whiteSpace=wrap;html=1;dashed=1;dashPattern=1 1;" vertex="1" parent="1">
          <mxGeometry x="542.5" y="476" width="37.5" height="28" as="geometry" />
        </mxCell>
        <mxCell id="-CnpAzFmehN0sEzD7tOe-5" value="metaq" style="rounded=0;whiteSpace=wrap;html=1;dashed=1;dashPattern=1 1;" vertex="1" parent="1">
          <mxGeometry x="492.25" y="514" width="39.75" height="29" as="geometry" />
        </mxCell>
        <mxCell id="-CnpAzFmehN0sEzD7tOe-6" value="......" style="rounded=0;whiteSpace=wrap;html=1;dashed=1;dashPattern=1 1;" vertex="1" parent="1">
          <mxGeometry x="594" y="514" width="36" height="27" as="geometry" />
        </mxCell>
        <mxCell id="-CnpAzFmehN0sEzD7tOe-7" value="sufire" style="rounded=0;whiteSpace=wrap;html=1;dashed=1;dashPattern=1 1;" vertex="1" parent="1">
          <mxGeometry x="594" y="476" width="35" height="27" as="geometry" />
        </mxCell>
        <mxCell id="-CnpAzFmehN0sEzD7tOe-8" value="odps" style="rounded=0;whiteSpace=wrap;html=1;dashed=1;dashPattern=1 1;" vertex="1" parent="1">
          <mxGeometry x="542.5" y="513" width="38.5" height="28" as="geometry" />
        </mxCell>
        <mxCell id="-CnpAzFmehN0sEzD7tOe-9" value="" style="endArrow=classic;html=1;exitX=0.75;exitY=1;exitDx=0;exitDy=0;" edge="1" parent="1" source="wOw6Tid5QmzaZG2gmArs-24">
          <mxGeometry width="50" height="50" relative="1" as="geometry">
            <mxPoint x="387" y="418" as="sourcePoint" />
            <mxPoint x="538" y="473" as="targetPoint" />
          </mxGeometry>
        </mxCell>
      </root>
    </mxGraphModel>
  </diagram>
</mxfile>
